<svg width="221" height="67" viewBox="0 0 221 67" fill="none" xmlns="http://www.w3.org/2000/svg">
<path d="M21.28 33.6854H31.72L31.72 7.28538H51.76L51.76 33.6854L63.76 33.6854L63.76 3.68538H85V60.3254L0.0399995 60.3254L0.0399995 3.68538H21.28L21.28 33.6854Z" fill="#1890FF"/>
<path d="M108.04 50.28C105.907 50.28 104.013 49.9333 102.36 49.24C100.733 48.5467 99.44 47.5867 98.48 46.36C97.52 45.1333 96.9733 43.7467 96.84 42.2H105.36C105.467 42.8667 105.747 43.36 106.2 43.68C106.68 44 107.28 44.16 108 44.16C108.453 44.16 108.813 44.0667 109.08 43.88C109.347 43.6667 109.48 43.4133 109.48 43.12C109.48 42.6133 109.2 42.2533 108.64 42.04C108.08 41.8267 107.133 41.5867 105.8 41.32C104.173 41 102.827 40.6533 101.76 40.28C100.72 39.9067 99.8 39.2667 99 38.36C98.2267 37.4533 97.84 36.2 97.84 34.6C97.84 33.2133 98.2 31.96 98.92 30.84C99.6667 29.6933 100.76 28.8 102.2 28.16C103.64 27.4933 105.387 27.16 107.44 27.16C110.48 27.16 112.853 27.9067 114.56 29.4C116.293 30.8933 117.333 32.84 117.68 35.24H109.8C109.667 34.6267 109.387 34.16 108.96 33.84C108.533 33.4933 107.96 33.32 107.24 33.32C106.787 33.32 106.44 33.4133 106.2 33.6C105.96 33.76 105.84 34.0133 105.84 34.36C105.84 34.8133 106.12 35.16 106.68 35.4C107.24 35.6133 108.133 35.84 109.36 36.08C110.987 36.4 112.36 36.76 113.48 37.16C114.6 37.56 115.573 38.2533 116.4 39.24C117.227 40.2 117.64 41.5333 117.64 43.24C117.64 44.5733 117.253 45.7733 116.48 46.84C115.707 47.9067 114.587 48.7467 113.12 49.36C111.68 49.9733 109.987 50.28 108.04 50.28ZM135.204 42.44V50H131.844C125.657 50 122.564 46.92 122.564 40.76V34.84H119.764V27.44H122.564V22H131.444V27.44H135.124V34.84H131.444V40.92C131.444 41.4533 131.564 41.84 131.804 42.08C132.071 42.32 132.497 42.44 133.084 42.44H135.204ZM137.386 38.72C137.386 36.3467 137.786 34.2933 138.586 32.56C139.413 30.8 140.533 29.4667 141.946 28.56C143.359 27.6267 144.946 27.16 146.706 27.16C148.173 27.16 149.439 27.4667 150.506 28.08C151.573 28.6667 152.386 29.48 152.946 30.52V27.44H161.786V50H152.946V46.92C152.386 47.96 151.573 48.7867 150.506 49.4C149.439 49.9867 148.173 50.28 146.706 50.28C144.946 50.28 143.359 49.8267 141.946 48.92C140.533 47.9867 139.413 46.6533 138.586 44.92C137.786 43.16 137.386 41.0933 137.386 38.72ZM152.946 38.72C152.946 37.52 152.639 36.5867 152.026 35.92C151.413 35.2533 150.626 34.92 149.666 34.92C148.706 34.92 147.919 35.2533 147.306 35.92C146.693 36.5867 146.386 37.52 146.386 38.72C146.386 39.92 146.693 40.8533 147.306 41.52C147.919 42.1867 148.706 42.52 149.666 42.52C150.626 42.52 151.413 42.1867 152.026 41.52C152.639 40.8533 152.946 39.92 152.946 38.72ZM179.813 42.44V50H176.453C170.267 50 167.173 46.92 167.173 40.76V34.84H164.373V27.44H167.173V22H176.053V27.44H179.733V34.84H176.053V40.92C176.053 41.4533 176.173 41.84 176.413 42.08C176.68 42.32 177.107 42.44 177.693 42.44H179.813ZM205.035 38.52C205.035 39.1333 204.995 39.72 204.915 40.28H190.635C190.769 42.2267 191.582 43.2 193.075 43.2C194.035 43.2 194.729 42.76 195.155 41.88H204.555C204.235 43.48 203.555 44.92 202.515 46.2C201.502 47.4533 200.209 48.4533 198.635 49.2C197.089 49.92 195.382 50.28 193.515 50.28C191.275 50.28 189.275 49.8133 187.515 48.88C185.782 47.9467 184.422 46.6133 183.435 44.88C182.475 43.12 181.995 41.0667 181.995 38.72C181.995 36.3733 182.475 34.3333 183.435 32.6C184.422 30.84 185.782 29.4933 187.515 28.56C189.275 27.6267 191.275 27.16 193.515 27.16C195.755 27.16 197.742 27.6267 199.475 28.56C201.235 29.4667 202.595 30.7733 203.555 32.48C204.542 34.1867 205.035 36.2 205.035 38.52ZM196.035 36.4C196.035 35.6533 195.795 35.0933 195.315 34.72C194.835 34.32 194.235 34.12 193.515 34.12C191.942 34.12 191.022 34.88 190.755 36.4H196.035ZM212.244 50.32C210.697 50.32 209.457 49.9067 208.524 49.08C207.59 48.2533 207.124 47.2133 207.124 45.96C207.124 44.68 207.59 43.6267 208.524 42.8C209.457 41.9467 210.697 41.52 212.244 41.52C213.764 41.52 214.99 41.9467 215.924 42.8C216.857 43.6267 217.324 44.68 217.324 45.96C217.324 47.2133 216.857 48.2533 215.924 49.08C214.99 49.9067 213.764 50.32 212.244 50.32Z" fill="#0B0B0B"/>
</svg>
