<svg width="221" height="66" viewBox="0 0 221 66" fill="none" xmlns="http://www.w3.org/2000/svg">
<path d="M21.28 33.36H31.72L31.72 6.95999H51.76L51.76 33.36L63.76 33.36L63.76 3.35999H85V60L0.0399995 60L0.0399995 3.35999H21.28L21.28 33.36Z" fill="#FF7A00"/>
<path d="M108.04 50.2015C105.907 50.2015 104.013 49.8548 102.36 49.1615C100.733 48.4682 99.44 47.5082 98.48 46.2815C97.52 45.0548 96.9733 43.6682 96.84 42.1215H105.36C105.467 42.7882 105.747 43.2815 106.2 43.6015C106.68 43.9215 107.28 44.0815 108 44.0815C108.453 44.0815 108.813 43.9882 109.08 43.8015C109.347 43.5882 109.48 43.3348 109.48 43.0415C109.48 42.5348 109.2 42.1748 108.64 41.9615C108.08 41.7482 107.133 41.5082 105.8 41.2415C104.173 40.9215 102.827 40.5748 101.76 40.2015C100.72 39.8282 99.8 39.1882 99 38.2815C98.2267 37.3748 97.84 36.1215 97.84 34.5215C97.84 33.1348 98.2 31.8815 98.92 30.7615C99.6667 29.6148 100.76 28.7215 102.2 28.0815C103.64 27.4148 105.387 27.0815 107.44 27.0815C110.48 27.0815 112.853 27.8282 114.56 29.3215C116.293 30.8148 117.333 32.7615 117.68 35.1615H109.8C109.667 34.5482 109.387 34.0815 108.96 33.7615C108.533 33.4148 107.96 33.2415 107.24 33.2415C106.787 33.2415 106.44 33.3348 106.2 33.5215C105.96 33.6815 105.84 33.9348 105.84 34.2815C105.84 34.7348 106.12 35.0815 106.68 35.3215C107.24 35.5348 108.133 35.7615 109.36 36.0015C110.987 36.3215 112.36 36.6815 113.48 37.0815C114.6 37.4815 115.573 38.1748 116.4 39.1615C117.227 40.1215 117.64 41.4548 117.64 43.1615C117.64 44.4948 117.253 45.6948 116.48 46.7615C115.707 47.8282 114.587 48.6682 113.12 49.2815C111.68 49.8948 109.987 50.2015 108.04 50.2015ZM135.204 42.3615V49.9215H131.844C125.657 49.9215 122.564 46.8415 122.564 40.6815V34.7615H119.764V27.3615H122.564V21.9215H131.444V27.3615H135.124V34.7615H131.444V40.8415C131.444 41.3748 131.564 41.7615 131.804 42.0015C132.071 42.2415 132.497 42.3615 133.084 42.3615H135.204ZM137.386 38.6415C137.386 36.2682 137.786 34.2148 138.586 32.4815C139.413 30.7215 140.533 29.3882 141.946 28.4815C143.359 27.5482 144.946 27.0815 146.706 27.0815C148.173 27.0815 149.439 27.3882 150.506 28.0015C151.573 28.5882 152.386 29.4015 152.946 30.4415V27.3615H161.786V49.9215H152.946V46.8415C152.386 47.8815 151.573 48.7082 150.506 49.3215C149.439 49.9082 148.173 50.2015 146.706 50.2015C144.946 50.2015 143.359 49.7482 141.946 48.8415C140.533 47.9082 139.413 46.5748 138.586 44.8415C137.786 43.0815 137.386 41.0148 137.386 38.6415ZM152.946 38.6415C152.946 37.4415 152.639 36.5082 152.026 35.8415C151.413 35.1748 150.626 34.8415 149.666 34.8415C148.706 34.8415 147.919 35.1748 147.306 35.8415C146.693 36.5082 146.386 37.4415 146.386 38.6415C146.386 39.8415 146.693 40.7748 147.306 41.4415C147.919 42.1082 148.706 42.4415 149.666 42.4415C150.626 42.4415 151.413 42.1082 152.026 41.4415C152.639 40.7748 152.946 39.8415 152.946 38.6415ZM179.813 42.3615V49.9215H176.453C170.267 49.9215 167.173 46.8415 167.173 40.6815V34.7615H164.373V27.3615H167.173V21.9215H176.053V27.3615H179.733V34.7615H176.053V40.8415C176.053 41.3748 176.173 41.7615 176.413 42.0015C176.68 42.2415 177.107 42.3615 177.693 42.3615H179.813ZM205.035 38.4415C205.035 39.0548 204.995 39.6415 204.915 40.2015H190.635C190.769 42.1482 191.582 43.1215 193.075 43.1215C194.035 43.1215 194.729 42.6815 195.155 41.8015H204.555C204.235 43.4015 203.555 44.8415 202.515 46.1215C201.502 47.3748 200.209 48.3748 198.635 49.1215C197.089 49.8415 195.382 50.2015 193.515 50.2015C191.275 50.2015 189.275 49.7348 187.515 48.8015C185.782 47.8682 184.422 46.5348 183.435 44.8015C182.475 43.0415 181.995 40.9882 181.995 38.6415C181.995 36.2948 182.475 34.2548 183.435 32.5215C184.422 30.7615 185.782 29.4148 187.515 28.4815C189.275 27.5482 191.275 27.0815 193.515 27.0815C195.755 27.0815 197.742 27.5482 199.475 28.4815C201.235 29.3882 202.595 30.6948 203.555 32.4015C204.542 34.1082 205.035 36.1215 205.035 38.4415ZM196.035 36.3215C196.035 35.5748 195.795 35.0148 195.315 34.6415C194.835 34.2415 194.235 34.0415 193.515 34.0415C191.942 34.0415 191.022 34.8015 190.755 36.3215H196.035ZM212.244 50.2415C210.697 50.2415 209.457 49.8282 208.524 49.0015C207.59 48.1748 207.124 47.1348 207.124 45.8815C207.124 44.6015 207.59 43.5482 208.524 42.7215C209.457 41.8682 210.697 41.4415 212.244 41.4415C213.764 41.4415 214.99 41.8682 215.924 42.7215C216.857 43.5482 217.324 44.6015 217.324 45.8815C217.324 47.1348 216.857 48.1748 215.924 49.0015C214.99 49.8282 213.764 50.2415 212.244 50.2415Z" fill="#0B0B0B"/>
</svg>
